<?xml version="1.0" encoding="utf-8"?>
<!-- Generator: Adobe Illustrator 17.1.0, SVG Export Plug-In . SVG Version: 6.00 Build 0)  -->
<!DOCTYPE svg PUBLIC "-//W3C//DTD SVG 1.1//EN" "http://www.w3.org/Graphics/SVG/1.1/DTD/svg11.dtd" [
	<!ENTITY st0 "fill:#222222;">
	<!ENTITY st1 "fill:#FFD55F;">
]>
<svg version="1.1" id="Layer_1" xmlns="http://www.w3.org/2000/svg" xmlns:xlink="http://www.w3.org/1999/xlink" x="0px" y="0px"
	 viewBox="0 0 699.289 699.29" style="enable-background:new 0 0 699.289 699.29;" xml:space="preserve">
<g>
	<path style="&st0;" d="M38.28,256.15c1.54-0.66,2.64-1.101,4.84-1.101c5.94,0,10.78,4.84,10.78,10.78c0,3.52-1.98,7.92-6.38,9.9
		c-22.44,10.12-23.32,36.74-23.32,76.561c0,39.819,0.88,66.439,23.32,76.56c4.399,1.98,6.38,6.381,6.38,9.9
		c0,5.94-4.84,10.78-10.78,10.78c-2.2,0-3.3-0.44-4.84-1.101C9.68,436.551,0,409.711,0,352.291C0,294.87,9.68,268.03,38.28,256.15z"
		/>
	<path style="&st0;" d="M104.196,311.812c18.4,0,29,9.199,32.6,13.8c1.601,2.2,2.2,3.8,2.2,6.2c0,5.399-4.2,9.6-9.6,9.6
		c-3.2,0-5.601-1.4-7.4-3.4c-2.6-2.8-7.8-7.8-17.8-7.8c-13.999,0-21.6,10.8-21.6,29.6c0,19.2,7.601,29.8,21.6,29.8
		c9.2,0,15.2-4.601,19.8-8c2.2-1.6,4-2,6-2c5.4,0,9.6,4.2,9.6,9.6c0,2.8-1,5.2-3.399,7.4c-4.601,4.199-15.6,11.399-32,11.399
		c-27.199,0-43.399-15.6-43.399-48.199S76.997,311.812,104.196,311.812z"/>
	<path style="&st0;" d="M149.195,289.612c0-9.199,4.6-13.199,12.8-13.199c8.399,0,12.999,4,12.999,13.199
		c0,7.8-4.6,12.601-12.999,12.601C153.795,302.213,149.195,297.412,149.195,289.612z M172.795,396.211c0,6-4.8,10.8-10.8,10.8
		s-10.8-4.8-10.8-10.8v-72.398c0-6,4.8-10.8,10.8-10.8s10.8,4.8,10.8,10.8V396.211z"/>
	<path style="&st0;" d="M251.193,319.812v-46c0-5.999,4.8-10.8,10.8-10.8s10.8,4.801,10.8,10.8v94.199
		c0,26.6-17.199,39.999-41.399,39.999c-26.999,0-42.799-15.399-42.799-47.999s15.399-48.199,40.6-48.199
		C238.794,311.812,247.193,315.812,251.193,319.812z M251.193,340.412c0,0-7.8-10.2-19.8-10.2c-13.6,0-21.399,10-21.399,29.8
		c0,19.6,7.6,29.6,21.399,29.6c11.601,0,19.8-7.8,19.8-21.6V340.412z"/>
	<path style="&st0;" d="M330.993,311.812c33.799,0,39.999,25.999,39.999,39.799c0,7.4,0,16-12.199,16h-49.399
		c0,14.4,10.199,21,23.399,21c8.8,0,15-3,19.8-6.2c2.2-1.399,3.8-2.2,6.399-2.2c5.2,0,9.4,4.2,9.4,9.4c0,3.2-1.601,5.8-3.4,7.399
		c-3.399,3.2-14,11-32.199,11c-27.8,0-44.999-15-44.999-48.399C287.794,329.012,303.793,311.812,330.993,311.812z M309.993,349.611
		h39.6c0-9.8-5.6-19.399-18.6-19.399C319.394,330.212,310.993,336.811,309.993,349.611z"/>
	<path style="&st0;" d="M407.592,324.812c3.8-7.8,13.2-12.8,21.6-12.8c5.601,0,10.2,4.6,10.2,10.199c0,5.601-4.6,10.2-10.2,10.2
		c-13.8,0-21.6,8.8-21.6,22.199v41.6c0,6-4.8,10.8-10.8,10.8s-10.8-4.8-10.8-10.8v-72.398c0-6,4.8-10.8,10.8-10.8
		s10.8,4.8,10.8,10.8V324.812z"/>
	<path style="&st0;" d="M661.009,448.431c-1.54,0.66-2.641,1.101-4.841,1.101c-5.939,0-10.779-4.84-10.779-10.78
		c0-3.52,1.979-7.92,6.38-9.9c22.44-10.12,23.32-36.74,23.32-76.56c0-39.82-0.88-66.44-23.32-76.561c-4.4-1.98-6.38-6.381-6.38-9.9
		c0-5.94,4.84-10.78,10.779-10.78c2.2,0,3.301,0.44,4.841,1.101c28.6,11.88,38.28,38.72,38.28,96.141
		C699.289,409.711,689.608,436.551,661.009,448.431z"/>
</g>
<rect x="497.973" y="260.967" style="&st1;" width="93" height="178"/>
<g>
	<path style="&st0;" d="M488.334,476.265h-20.68c-7.041,0-12.101-4.84-12.101-11.44v-230.36c0-6.38,5.06-11.44,12.101-11.44h20.68
		c5.72,0,10.34,4.62,10.34,10.34c0,5.72-4.62,10.34-10.34,10.34h-9.021v211.88h9.021c5.72,0,10.34,4.621,10.34,10.341
		S494.054,476.265,488.334,476.265z"/>
	<path style="&st0;" d="M601.612,455.585h9.02v-211.88h-9.02c-5.721,0-10.341-4.62-10.341-10.34c0-5.72,4.62-10.34,10.341-10.34
		h20.68c7.04,0,12.1,5.06,12.1,11.44v230.36c0,6.601-5.06,11.44-12.1,11.44h-20.68c-5.721,0-10.341-4.62-10.341-10.34
		S595.891,455.585,601.612,455.585z"/>
</g>
<g>
</g>
<g>
</g>
<g>
</g>
<g>
</g>
<g>
</g>
</svg>
