<?xml version="1.0" encoding="utf-8"?>
<!DOCTYPE svg PUBLIC "-//W3C//DTD SVG 1.1//EN" "http://www.w3.org/Graphics/SVG/1.1/DTD/svg11.dtd" [
	<!ENTITY st0 "fill:#222222;">
	<!ENTITY st1 "fill:#FFD55F;">
]>
<svg version="1.1" id="Layer_1" xmlns="http://www.w3.org/2000/svg" xmlns:xlink="http://www.w3.org/1999/xlink" x="0px" y="0px"
	 viewBox="0 0 243.735 253.24" style="enable-background:new 0 0 243.735 253.24;" xml:space="preserve">
<path style="&st0;" d="M205.455,225.406c-1.54,0.66-2.641,1.101-4.841,1.101c-5.939,0-10.779-4.84-10.779-10.78
	c0-3.52,1.979-7.92,6.38-9.9c22.44-10.12,23.32-36.74,23.32-76.56c0-39.82-0.88-66.44-23.32-76.561c-4.4-1.98-6.38-6.381-6.38-9.9
	c0-5.94,4.84-10.78,10.779-10.78c2.2,0,3.301,0.44,4.841,1.101c28.6,11.88,38.28,38.72,38.28,96.141
	C243.735,186.686,234.054,213.526,205.455,225.406z"/>
<rect x="42.418" y="37.942" style="&st1;" width="93" height="178"/>
<g>
	<path style="&st0;" d="M32.78,253.24h-20.68C5.06,253.24,0,248.401,0,241.8V11.44C0,5.06,5.06,0,12.101,0h20.68
		c5.72,0,10.34,4.62,10.34,10.34c0,5.72-4.62,10.34-10.34,10.34H23.76v211.88h9.021c5.72,0,10.34,4.621,10.34,10.341
		S38.5,253.24,32.78,253.24z"/>
	<path style="&st0;" d="M146.058,232.56h9.02V20.68h-9.02c-5.721,0-10.341-4.62-10.341-10.34c0-5.72,4.62-10.34,10.341-10.34h20.68
		c7.04,0,12.1,5.06,12.1,11.44V241.8c0,6.601-5.06,11.44-12.1,11.44h-20.68c-5.721,0-10.341-4.62-10.341-10.34
		S140.337,232.56,146.058,232.56z"/>
</g>
</svg>
