<?xml version="1.0" encoding="utf-8"?>
<!DOCTYPE svg PUBLIC "-//W3C//DTD SVG 1.1//EN" "http://www.w3.org/Graphics/SVG/1.1/DTD/svg11.dtd" [
	<!ENTITY st0 "fill:#222222;">
	<!ENTITY st1 "fill:#FFD55F;">
]>
<svg version="1.1" id="Layer_1" xmlns="http://www.w3.org/2000/svg" xmlns:xlink="http://www.w3.org/1999/xlink" x="0px" y="0px"
	 viewBox="0 0 698.3 253.2" style="enable-background:new 0 0 698.3 253.2;" xml:space="preserve">
<g>
	<path style="&st0;" d="M38.3,33.1c1.5-0.7,2.6-1.1,4.8-1.1c5.9,0,10.8,4.8,10.8,10.8c0,3.5-2,7.9-6.4,9.9
		c-22.4,10.1-23.3,36.7-23.3,76.6c0,39.8,0.9,66.4,23.3,76.6c4.4,2,6.4,6.4,6.4,9.9c0,5.9-4.8,10.8-10.8,10.8
		c-2.2,0-3.3-0.4-4.8-1.1C9.7,213.5,0,186.7,0,129.3C0,71.8,9.7,45,38.3,33.1z"/>
	<path style="&st0;" d="M98.7,88.8c18.4,0,29,9.2,32.6,13.8c1.6,2.2,2.2,3.8,2.2,6.2c0,5.4-4.2,9.6-9.6,9.6c-3.2,0-5.6-1.4-7.4-3.4
		c-2.6-2.8-7.8-7.8-17.8-7.8c-14,0-21.6,10.8-21.6,29.6c0,19.2,7.6,29.8,21.6,29.8c9.2,0,15.2-4.6,19.8-8c2.2-1.6,4-2,6-2
		c5.4,0,9.6,4.2,9.6,9.6c0,2.8-1,5.2-3.4,7.4c-4.6,4.2-15.6,11.4-32,11.4c-27.2,0-43.4-15.6-43.4-48.2S71.5,88.8,98.7,88.8z"/>
	<path style="&st0;" d="M148.7,66.6c0-9.2,4.6-13.2,12.8-13.2c8.4,0,13,4,13,13.2c0,7.8-4.6,12.6-13,12.6
		C153.3,79.2,148.7,74.4,148.7,66.6z M172.3,173.2c0,6-4.8,10.8-10.8,10.8s-10.8-4.8-10.8-10.8v-72.4c0-6,4.8-10.8,10.8-10.8
		s10.8,4.8,10.8,10.8V173.2z"/>
	<path style="&st0;" d="M250.7,96.8v-46c0-6,4.8-10.8,10.8-10.8s10.8,4.8,10.8,10.8V145c0,26.6-17.2,40-41.4,40
		c-27,0-42.8-15.4-42.8-48s15.4-48.2,40.6-48.2C238.3,88.8,246.7,92.8,250.7,96.8z M250.7,117.4c0,0-7.8-10.2-19.8-10.2
		c-13.6,0-21.4,10-21.4,29.8c0,19.6,7.6,29.6,21.4,29.6c11.6,0,19.8-7.8,19.8-21.6V117.4z"/>
	<path style="&st0;" d="M330.5,88.8c33.8,0,40,26,40,39.8c0,7.4,0,16-12.2,16h-49.4c0,14.4,10.2,21,23.4,21c8.8,0,15-3,19.8-6.2
		c2.2-1.4,3.8-2.2,6.4-2.2c5.2,0,9.4,4.2,9.4,9.4c0,3.2-1.6,5.8-3.4,7.4c-3.4,3.2-14,11-32.2,11c-27.8,0-45-15-45-48.4
		C287.3,106,303.3,88.8,330.5,88.8z M309.5,126.6h39.6c0-9.8-5.6-19.4-18.6-19.4C318.9,107.2,310.5,113.8,309.5,126.6z"/>
	<path style="&st0;" d="M407.1,101.8C410.9,94,420.3,89,428.7,89c5.6,0,10.2,4.6,10.2,10.2c0,5.6-4.6,10.2-10.2,10.2
		c-13.8,0-21.6,8.8-21.6,22.2v41.6c0,6-4.8,10.8-10.8,10.8s-10.8-4.8-10.8-10.8v-72.4c0-6,4.8-10.8,10.8-10.8s10.8,4.8,10.8,10.8
		V101.8z"/>
</g>
<rect x="497" y="37.9" style="&st1;" width="93" height="178"/>
<g>
	<path style="&st0;" d="M487.3,253.2h-20.7c-7,0-12.1-4.8-12.1-11.4V11.4c0-6.4,5.1-11.4,12.1-11.4h20.7c5.7,0,10.3,4.6,10.3,10.3
		c0,5.7-4.6,10.3-10.3,10.3h-9v211.9h9c5.7,0,10.3,4.6,10.3,10.3S493.1,253.2,487.3,253.2z"/>
	<path style="&st0;" d="M600.6,232.6h9V20.7h-9c-5.7,0-10.3-4.6-10.3-10.3c0-5.7,4.6-10.3,10.3-10.3h20.7c7,0,12.1,5.1,12.1,11.4
		v230.4c0,6.6-5.1,11.4-12.1,11.4h-20.7c-5.7,0-10.3-4.6-10.3-10.3S594.9,232.6,600.6,232.6z"/>
</g>
<g>
	<path style="&st0;" d="M660,225.4c-1.5,0.7-2.6,1.1-4.8,1.1c-5.9,0-10.8-4.8-10.8-10.8c0-3.5,2-7.9,6.4-9.9
		c22.4-10.1,23.3-36.7,23.3-76.6c0-39.8-0.9-66.4-23.3-76.6c-4.4-2-6.4-6.4-6.4-9.9c0-5.9,4.8-10.8,10.8-10.8c2.2,0,3.3,0.4,4.8,1.1
		c28.6,11.9,38.3,38.7,38.3,96.1C698.3,186.7,688.6,213.5,660,225.4z"/>
</g>
</svg>
